<mxfile host="app.diagrams.net" modified="2021-08-31T09:36:04.742Z" agent="5.0 (Windows NT 10.0; Win64; x64) AppleWebKit/537.36 (KHTML, like Gecko) Chrome/92.0.4515.159 Safari/537.36" etag="p3b0s-xeSpV0IsY4JX7i" version="15.0.3" type="github">
  <diagram id="5mge-j3H0eiMxb2UPJLQ" name="Page-1">
    <mxGraphModel dx="1718" dy="935" grid="1" gridSize="10" guides="1" tooltips="1" connect="1" arrows="1" fold="1" page="1" pageScale="1" pageWidth="827" pageHeight="1169" math="0" shadow="0">
      <root>
        <mxCell id="0" />
        <mxCell id="1" parent="0" />
      </root>
    </mxGraphModel>
  </diagram>
</mxfile>
